<?xml version="1.0" standalone="no"?>
<!DOCTYPE svg PUBLIC "-//W3C//DTD SVG 20010904//EN"
 "http://www.w3.org/TR/2001/REC-SVG-20010904/DTD/svg10.dtd">
<svg version="1.0" xmlns="http://www.w3.org/2000/svg"
 width="640.000000pt" height="640.000000pt" viewBox="0 0 640.000000 640.000000"
 preserveAspectRatio="xMidYMid meet">
<metadata>
Created by potrace 1.11, written by Peter Selinger 2001-2013
</metadata>
<g transform="translate(0.000000,640.000000) scale(0.100000,-0.100000)"
fill="#000000" stroke="none">
<path d="M1598 6393 c881 -2 2323 -2 3205 0 881 1 160 2 -1603 2 -1763 0
-2484 -1 -1602 -2z"/>
<path d="M2970 5558 c0 -8 -18 -14 -47 -16 -114 -6 -140 -10 -170 -25 -17 -9
-34 -21 -38 -26 -3 -5 -22 -15 -43 -21 -20 -7 -59 -27 -87 -45 -27 -18 -67
-40 -87 -48 -39 -16 -156 -129 -175 -169 -13 -25 -53 -303 -53 -365 0 -41 26
-122 59 -188 12 -21 21 -49 21 -62 0 -12 8 -41 17 -64 14 -37 15 -50 4 -103
-7 -33 -19 -73 -28 -89 -23 -45 -8 -43 20 3 21 35 26 39 37 25 14 -16 6 -65
-11 -65 -6 0 -8 -4 -4 -10 3 -5 12 -7 19 -4 18 7 24 -3 42 -73 16 -63 53 -119
90 -135 13 -6 24 -18 24 -27 0 -14 2 -14 10 -1 6 10 9 6 8 -17 l-1 -30 -31 16
c-17 9 -33 18 -36 21 -12 12 -129 90 -135 90 -3 0 -4 -4 0 -9 3 -5 1 -12 -5
-16 -10 -6 -11 -5 -15 31 -1 12 -5 26 -9 33 -10 15 -29 14 -21 -1 4 -7 0 -5
-8 4 -8 10 -17 15 -20 11 -4 -3 -7 -1 -7 5 0 5 5 12 12 14 8 3 7 10 -4 27 -15
21 -16 21 -21 2 -6 -23 28 -141 45 -156 8 -7 9 -5 5 8 -4 11 -1 17 9 17 9 0
18 -9 21 -20 3 -11 9 -17 14 -14 5 3 9 -2 9 -10 0 -9 5 -16 11 -16 5 0 8 -4 4
-10 -10 -16 19 -51 59 -71 51 -24 68 -24 36 1 -18 14 -21 20 -9 20 18 0 53
-28 62 -50 3 -9 6 -10 6 -2 1 6 8 12 16 12 8 0 12 -6 9 -13 -2 -7 10 -21 28
-31 44 -25 87 -65 103 -97 11 -20 29 -30 82 -44 37 -10 75 -21 83 -26 12 -6
21 5 42 49 29 60 38 59 13 -1 -8 -20 -15 -39 -15 -42 0 -14 23 -1 65 35 25 22
53 40 61 40 8 0 13 4 10 9 -28 45 84 76 133 37 11 -9 13 -8 9 4 -2 8 -17 21
-31 28 -15 7 -27 17 -27 23 0 5 -12 9 -26 9 -14 0 -22 4 -19 10 3 5 -12 28
-35 50 -46 45 -75 53 -65 18 5 -20 4 -21 -5 -5 -6 9 -8 22 -5 28 4 5 0 21 -9
34 -16 25 -19 80 -7 124 4 15 18 28 36 34 44 14 60 31 116 125 59 98 69 143
44 207 -18 50 -14 98 9 89 7 -3 18 -20 23 -37 l9 -32 6 27 c3 16 1 25 -5 21
-5 -3 -7 3 -3 13 3 11 -2 28 -10 39 -13 17 -16 18 -25 5 -7 -11 -8 -6 -4 17 5
24 2 37 -11 50 -17 17 -17 17 -11 1 3 -10 2 -20 -3 -23 -6 -4 -10 0 -10 7 0 8
-6 22 -13 32 -13 18 -15 18 -62 -3 -87 -38 -81 -5 19 103 20 22 36 44 36 48 0
4 9 8 20 8 15 0 20 -7 20 -27 0 -15 10 -37 22 -51 18 -18 23 -35 23 -75 0 -49
2 -53 35 -69 66 -33 90 -22 140 61 24 42 28 56 18 62 -9 6 -8 9 7 9 16 0 11 8
-25 41 -25 22 -61 54 -80 73 -49 46 -94 60 -126 39 -21 -13 -29 -14 -49 -3
-14 7 -25 21 -25 30 0 64 -215 124 -265 74 -11 -12 -13 -20 -6 -27 11 -11 15
-47 5 -47 -14 0 -34 31 -34 55 l0 26 -77 -7 c-121 -10 -115 -14 -91 56 20 56
20 61 4 85 -17 25 -16 27 21 74 36 46 92 79 112 66 5 -3 12 -1 16 5 3 5 15 10
26 10 11 0 18 -4 15 -8 -2 -4 48 -8 112 -7 143 0 169 -11 266 -116 38 -41 66
-65 66 -55 0 9 4 16 9 16 15 0 18 70 4 88 -7 9 -13 23 -13 30 0 7 -18 40 -40
73 -39 56 -64 73 -72 47 -3 -7 -9 -8 -18 -3 -10 6 -8 10 11 17 22 9 23 10 7
22 -10 7 -18 18 -18 25 0 23 -35 46 -66 43 -19 -2 -38 3 -47 12 -19 19 -37 21
-37 4z m-130 -498 c0 -5 -4 -10 -10 -10 -5 0 -10 5 -10 10 0 6 5 10 10 10 6 0
10 -4 10 -10z m72 -32 c-11 -11 -32 -3 -32 12 0 4 9 6 21 3 13 -4 17 -9 11
-15z m-152 -27 c0 -11 9 -21 24 -25 20 -5 24 -13 29 -58 2 -29 1 -55 -3 -58
-4 -3 -10 -15 -14 -27 -4 -13 -12 -23 -19 -23 -8 0 -8 3 0 11 17 17 3 58 -27
79 -29 21 -70 78 -70 98 0 11 21 19 58 21 15 1 22 -5 22 -18z m-332 -31 c17
-11 32 -26 32 -33 0 -8 7 -28 16 -46 16 -32 13 -101 -5 -101 -5 0 -11 -8 -14
-19 -7 -28 -54 -36 -94 -14 -68 36 -84 160 -28 216 22 22 53 21 93 -3z m234
-42 c46 -35 118 -160 118 -207 0 -19 3 -22 11 -14 6 6 17 10 23 9 6 -2 8 -1 4
1 -5 3 -8 15 -8 28 0 31 28 40 49 17 9 -11 22 -17 29 -14 7 2 11 -2 10 -10 -2
-9 10 -14 37 -16 22 -2 44 -10 48 -18 4 -8 17 -14 27 -14 28 0 36 -20 11 -27
-29 -7 -21 -28 10 -28 13 0 30 -6 37 -12 7 -7 20 -13 28 -13 8 0 14 -7 14 -15
0 -11 -10 -13 -41 -10 -22 2 -46 9 -54 15 -7 6 -25 8 -39 4 -20 -5 -26 -2 -26
9 0 29 -17 27 -58 -8 -22 -19 -45 -35 -50 -35 -5 0 -15 -7 -22 -15 -7 -8 -15
-15 -19 -15 -10 0 -71 57 -71 67 0 5 -10 10 -22 10 -13 1 -24 7 -26 13 -2 5
-12 10 -22 10 -10 0 -20 7 -24 15 -3 8 -12 15 -21 15 -8 0 -15 5 -15 10 0 6
-9 10 -19 10 -10 0 -21 6 -24 14 -10 25 -7 217 3 237 16 28 53 23 102 -13z
m374 -377 c10 -6 31 -15 46 -21 17 -6 30 -19 34 -35 8 -32 -4 -46 -17 -22 -6
9 -14 15 -18 12 -5 -2 -14 1 -20 9 -14 17 -73 13 -103 -8 l-22 -16 52 -50 c29
-27 52 -55 52 -60 0 -15 -66 -2 -123 25 l-47 22 20 26 c24 30 25 43 4 51 -16
6 -17 51 -2 72 11 15 117 11 144 -5z m-420 -538 c-3 -4 -6 -1 -6 6 0 7 -4 9
-10 6 -11 -7 -14 8 -3 19 4 3 11 -1 16 -9 5 -9 6 -19 3 -22z"/>
<path d="M2343 4958 c-13 -17 -24 -48 -17 -48 9 0 34 28 34 39 0 6 7 8 15 5 8
-4 15 -14 15 -23 0 -9 5 -22 11 -28 7 -7 2 -15 -17 -28 l-28 -18 23 -9 c29
-10 61 -2 61 16 0 23 -31 75 -53 91 -26 18 -32 19 -44 3z"/>
<path d="M2845 4730 c-3 -5 -1 -10 4 -10 6 0 11 5 11 10 0 6 -2 10 -4 10 -3 0
-8 -4 -11 -10z"/>
<path d="M3150 4613 c0 -4 5 -15 10 -23 8 -13 10 -13 10 2 0 9 -4 20 -10 23
-5 3 -10 3 -10 -2z"/>
<path d="M2141 4186 c-10 -12 -8 -13 8 -9 12 3 21 9 21 14 0 14 -16 11 -29 -5z"/>
<path d="M2250 4156 c0 -8 5 -18 10 -21 6 -3 10 1 10 9 0 8 -4 18 -10 21 -5 3
-10 -1 -10 -9z"/>
<path d="M5845 4140 c-27 -10 -58 -19 -67 -19 -26 -1 -32 -20 -12 -43 18 -19
18 -20 -1 -34 -10 -8 -24 -14 -31 -14 -19 0 -25 29 -7 38 10 6 13 14 8 22 -6
9 -12 5 -22 -14 -16 -31 -33 -34 -33 -6 0 17 -3 19 -19 11 -10 -6 -21 -7 -25
-4 -3 3 -6 1 -6 -5 0 -6 -7 -9 -15 -6 -19 8 -47 -20 -34 -33 6 -6 3 -16 -9
-26 -17 -16 -22 -16 -54 -3 -24 10 -45 12 -71 6 -53 -11 -46 5 7 19 25 6 48
16 52 23 5 7 2 9 -8 6 -8 -4 -40 -9 -72 -13 -61 -8 -76 -18 -49 -33 15 -9 15
-12 3 -27 -10 -12 -23 -15 -49 -10 -20 3 -66 -1 -104 -8 -37 -8 -69 -11 -72
-7 -3 4 15 11 40 15 25 3 43 10 40 16 -4 5 4 9 17 9 14 0 33 7 44 15 18 15 14
16 -46 13 -43 -3 -74 -10 -90 -22 l-25 -18 45 5 c25 3 38 2 30 -2 -8 -5 -35
-11 -60 -14 -25 -3 -59 -13 -75 -21 -17 -9 -40 -16 -52 -16 -13 0 -23 -4 -23
-10 0 -5 12 -10 26 -10 14 0 23 -4 19 -10 -4 -6 -11 -7 -17 -4 -8 5 -9 1 -5
-10 4 -10 7 -20 7 -22 0 -2 23 -4 51 -4 40 0 50 3 46 14 -8 21 25 46 60 46 22
0 32 -6 36 -20 8 -29 69 -28 97 3 20 20 22 21 34 5 12 -17 66 -14 66 4 0 5 8
5 18 -1 26 -14 164 6 175 25 11 19 37 18 37 -1 0 -8 -7 -15 -15 -15 -8 0 -15
-4 -15 -10 0 -5 7 -7 15 -4 19 8 45 -13 39 -31 -3 -7 -13 -16 -21 -19 -21 -8
-73 15 -73 33 0 11 -12 13 -61 7 -77 -8 -88 -14 -58 -36 20 -16 21 -20 10 -34
-20 -24 -51 -20 -52 7 0 12 -3 16 -6 10 -6 -17 -36 -17 -31 -1 3 7 15 15 29
18 13 3 19 9 13 12 -5 4 -86 -9 -180 -28 -93 -18 -170 -34 -171 -34 -12 0 1
-20 15 -23 10 -3 5 -5 -12 -6 -23 -1 -329 -105 -345 -118 -2 -2 -2 -6 2 -9 3
-4 70 16 149 42 171 59 242 63 372 24 76 -23 81 -23 138 -9 48 13 60 14 69 2
16 -18 28 -16 36 5 9 24 23 32 60 32 17 0 44 5 59 10 21 8 31 7 44 -5 17 -15
19 -15 33 5 12 18 23 21 61 19 25 -2 48 0 52 4 11 11 54 8 54 -3 0 -5 7 -10
15 -10 8 0 15 -6 15 -12 0 -12 50 -42 57 -34 8 8 -11 36 -28 41 -43 14 -10 30
69 35 l82 5 49 50 c40 41 51 59 56 97 6 39 4 49 -14 67 -12 12 -21 24 -21 29
-1 26 -37 46 -122 67 -51 13 -100 25 -108 28 -8 2 -37 -4 -65 -13z m114 -39
c12 -8 12 -12 2 -25 -11 -13 -11 -17 3 -22 9 -3 16 -12 16 -20 0 -8 9 -14 20
-14 12 0 20 -7 20 -18 0 -9 9 -23 20 -30 24 -14 26 -32 5 -32 -22 0 -157 140
-151 156 6 16 44 18 65 5z m-111 -139 c-3 -12 2 -24 14 -31 11 -7 17 -19 14
-27 -4 -9 1 -14 14 -14 24 0 26 -15 4 -24 -53 -20 -90 7 -72 53 7 19 6 28 -6
37 -18 13 -11 24 17 24 14 0 18 -5 15 -18z m-39 -43 c-7 -14 -14 -18 -21 -11
-13 13 -2 32 18 32 12 0 13 -4 3 -21z m244 -36 c-24 -2 -62 -2 -85 0 -24 2 -5
4 42 4 47 0 66 -2 43 -4z m-818 -63 c4 -6 -7 -10 -27 -9 -31 1 -32 1 -8 9 14
4 26 8 27 9 1 1 5 -3 8 -9z"/>
<path d="M5528 4053 c7 -3 16 -2 19 1 4 3 -2 6 -13 5 -11 0 -14 -3 -6 -6z"/>
<path d="M5324 4024 c3 -9 6 -18 6 -20 0 -3 4 -3 10 1 11 7 2 35 -12 35 -6 0
-7 -7 -4 -16z"/>
<path d="M5525 4029 c-11 -17 1 -21 15 -4 8 9 8 15 2 15 -6 0 -14 -5 -17 -11z"/>
<path d="M1640 3950 c0 -5 5 -10 10 -10 6 0 10 5 10 10 0 6 -4 10 -10 10 -5 0
-10 -4 -10 -10z"/>
<path d="M2375 3920 c9 -16 20 -30 26 -30 5 0 0 14 -13 30 -12 17 -23 30 -25
30 -2 0 3 -13 12 -30z"/>
<path d="M1915 3910 c-16 -17 -16 -20 -3 -15 9 4 19 13 22 21 7 19 2 18 -19
-6z"/>
<path d="M2487 3900 c3 -11 9 -20 14 -20 11 0 11 3 3 24 -9 23 -23 20 -17 -4z"/>
<path d="M1650 3870 c0 -5 7 -10 15 -10 8 0 15 5 15 10 0 6 -7 10 -15 10 -8 0
-15 -4 -15 -10z"/>
<path d="M1855 3839 c-15 -23 -39 -52 -54 -65 -17 -16 -21 -23 -11 -23 8 0 26
16 40 35 14 20 34 44 44 55 11 10 16 19 10 19 -5 0 -2 5 6 10 8 5 10 10 4 10
-6 0 -24 -19 -39 -41z"/>
<path d="M2520 3873 c0 -3 11 -16 24 -28 14 -13 22 -26 18 -29 -3 -4 1 -4 10
-1 9 4 15 12 12 18 -5 13 -64 50 -64 40z"/>
<path d="M1376 3844 c-3 -8 -3 -27 0 -40 3 -13 1 -30 -4 -37 -7 -9 -8 -26 -1
-55 5 -24 7 -47 4 -52 -3 -4 -1 -20 5 -34 6 -17 6 -26 -1 -26 -6 0 -6 -6 1
-19 13 -26 13 -31 -3 -31 -8 0 -19 18 -26 40 -7 25 -18 40 -27 40 -12 0 -14
-5 -9 -17 4 -10 10 -28 12 -40 3 -13 9 -23 14 -23 5 0 9 -9 9 -20 0 -22 -47
-73 -60 -65 -9 5 -5 60 5 88 7 17 -2 22 -32 18 -7 -1 -13 3 -13 9 0 5 8 10 18
10 14 0 15 2 2 10 -8 5 -28 10 -44 10 -21 0 -27 -4 -22 -15 3 -9 0 -15 -9 -15
-8 0 -15 -5 -15 -11 0 -5 -4 -7 -10 -4 -5 3 -10 -1 -10 -9 0 -21 19 -20 42 1
14 13 18 13 18 2 -1 -22 -24 -46 -39 -41 -8 3 -25 18 -38 33 -37 44 -143 119
-167 119 -12 0 -32 -7 -45 -16 l-23 -16 34 -29 c18 -16 58 -47 88 -68 77 -54
148 -134 156 -176 8 -46 1 -61 -33 -69 -15 -4 -43 -14 -60 -23 -19 -9 -43 -13
-58 -9 -43 11 -28 -10 38 -50 82 -51 113 -61 216 -69 47 -4 136 -14 196 -22
61 -8 146 -15 191 -16 71 -1 87 2 139 28 l59 30 -105 9 c-128 11 -476 13 -544
4 -40 -5 -45 -5 -25 4 88 37 122 53 131 65 6 7 27 15 48 19 21 4 45 17 57 33
l22 26 11 -40 c6 -22 11 -47 11 -56 0 -14 23 -18 143 -29 213 -18 296 -12 380
29 70 34 84 49 29 30 -18 -6 -38 -7 -49 -2 -16 8 -97 8 -163 0 -14 -1 -39 -10
-57 -20 -37 -20 -47 -21 -37 -6 4 8 0 7 -15 -1 -12 -6 -34 -10 -49 -8 l-27 4
28 12 c33 14 35 22 5 16 -13 -3 -7 2 12 11 19 9 43 17 55 19 11 2 20 8 20 14
0 6 4 14 9 19 6 5 6 2 1 -6 -6 -11 -4 -13 9 -8 10 4 23 7 29 7 6 0 2 6 -8 14
-17 12 -12 15 53 26 40 7 72 17 72 22 0 4 -6 8 -14 8 -7 0 -25 9 -39 20 -21
16 -24 25 -18 48 5 18 14 27 29 27 11 0 24 4 28 8 4 4 0 7 -9 7 -10 0 -16 3
-16 8 1 4 1 18 0 31 -1 21 -4 23 -33 17 -18 -3 -35 -12 -39 -18 -6 -9 -10 -7
-15 6 -5 12 -2 23 7 30 8 6 23 28 33 49 14 27 28 40 49 44 l29 6 -28 12 c-24
10 -31 9 -37 -2 -5 -7 -12 -11 -18 -8 -5 4 -9 1 -9 -4 0 -6 -7 -11 -16 -11
-14 0 -13 5 5 36 25 42 27 56 3 29 -9 -11 -26 -27 -37 -35 -17 -14 -17 -11 3
24 16 28 19 37 8 33 -8 -3 -17 -3 -19 1 -2 4 -3 2 -1 -5 1 -6 -7 -13 -18 -16
-15 -4 -18 -3 -10 5 8 8 7 15 -3 24 -16 16 -29 19 -20 4 3 -5 -1 -10 -9 -10
-9 0 -14 8 -13 20 1 15 6 18 21 14 19 -6 19 -5 4 10 -9 9 -23 16 -31 16 -8 0
-20 7 -27 15 -19 23 -31 18 -20 -9 5 -13 6 -27 3 -30 -8 -8 -43 24 -43 38 0 6
-9 17 -20 23 -16 11 -21 10 -29 -6 -7 -12 -6 -22 1 -29 9 -9 8 -12 -5 -12 -26
0 -32 4 -31 18 1 7 -11 12 -31 12 -33 0 -33 -1 -37 -51 -1 -28 1 -53 5 -56 5
-3 6 -11 4 -17 -3 -7 0 -43 7 -79 7 -37 10 -67 7 -67 -11 0 -44 118 -38 139 4
16 -2 26 -20 38 -22 15 -23 18 -9 28 19 14 20 31 5 74 -12 34 -24 40 -33 15z
m124 -44 c0 -5 -7 -10 -16 -10 -8 0 -12 5 -9 10 3 6 10 10 16 10 5 0 9 -4 9
-10z m299 -173 c-2 -1 -12 -9 -22 -16 -15 -12 -17 -12 -11 3 3 9 13 16 22 16
8 0 13 -1 11 -3z m-296 -164 c6 -9 6 -13 -1 -13 -10 0 -33 53 -31 74 0 6 5 -2
11 -19 6 -16 15 -36 21 -42z m-283 3 c0 -11 -19 -15 -25 -6 -3 5 1 10 9 10 9
0 16 -2 16 -4z"/>
<path d="M5103 3853 c9 -2 23 -2 30 0 6 3 -1 5 -18 5 -16 0 -22 -2 -12 -5z"/>
<path d="M1055 3840 c-3 -5 -1 -10 4 -10 6 0 11 5 11 10 0 6 -2 10 -4 10 -3 0
-8 -4 -11 -10z"/>
<path d="M4835 3840 c-3 -6 1 -7 9 -4 18 7 21 14 7 14 -6 0 -13 -4 -16 -10z"/>
<path d="M3170 3830 c-13 -8 -12 -10 3 -10 9 0 17 5 17 10 0 12 -1 12 -20 0z"/>
<path d="M1288 3823 c6 -2 18 -2 25 0 6 3 1 5 -13 5 -14 0 -19 -2 -12 -5z"/>
<path d="M4740 3810 c-9 -6 -10 -10 -3 -10 6 0 15 5 18 10 8 12 4 12 -15 0z"/>
<path d="M2590 3785 c0 -8 4 -15 10 -15 5 0 7 7 4 15 -4 8 -8 15 -10 15 -2 0
-4 -7 -4 -15z"/>
<path d="M1282 3751 c-11 -7 -11 -9 0 -13 17 -6 38 1 38 13 0 11 -21 11 -38 0z"/>
<path d="M3365 3720 c4 -19 11 -39 16 -45 6 -6 7 4 3 25 -4 19 -11 40 -16 45
-7 7 -8 -2 -3 -25z"/>
<path d="M4352 3689 c26 -28 47 -54 47 -57 -1 -4 -1 -36 0 -72 1 -60 2 -63 18
-48 15 15 15 23 4 75 -17 75 -32 103 -70 131 -50 37 -50 25 1 -29z"/>
<path d="M4514 3689 c4 -29 13 -57 19 -62 9 -7 9 -10 0 -14 -18 -7 -16 -68 2
-83 18 -15 55 -4 56 18 0 11 3 12 6 5 7 -20 23 -15 23 6 0 14 -6 19 -24 17
-38 -5 -49 8 -49 58 0 26 -4 49 -8 52 -5 3 -9 14 -9 24 0 10 -5 22 -11 26 -9
5 -10 -7 -5 -47z m56 -139 c0 -5 -2 -10 -4 -10 -3 0 -8 5 -11 10 -3 6 -1 10 4
10 6 0 11 -4 11 -10z"/>
<path d="M2476 3707 c3 -10 9 -15 12 -12 3 3 0 11 -7 18 -10 9 -11 8 -5 -6z"/>
<path d="M1284 3695 c3 -9 0 -15 -10 -15 -9 0 -12 -5 -8 -11 3 -6 0 -15 -7
-20 -11 -7 -11 -9 2 -9 9 0 21 11 27 25 15 32 15 45 1 45 -6 0 -9 -7 -5 -15z"/>
<path d="M3138 3665 c-3 -49 3 -71 19 -62 10 6 2 92 -9 103 -3 3 -8 -16 -10
-41z"/>
<path d="M780 3643 c0 -54 13 -60 67 -34 l48 23 -50 19 c-64 24 -65 24 -65 -8z"/>
<path d="M4252 3652 c-6 -2 -12 -10 -12 -18 0 -9 5 -12 10 -9 17 11 11 -12
-11 -36 -11 -13 -18 -18 -14 -11 3 6 1 12 -4 12 -6 0 -11 -7 -11 -15 0 -9 -11
-20 -24 -25 -13 -5 -27 -14 -31 -20 -6 -9 -2 -9 13 -1 28 15 32 14 32 -5 0
-13 7 -15 33 -10 116 21 -120 -72 -1084 -430 l-156 -57 65 -161 c85 -213 81
-193 36 -212 -22 -9 -52 -25 -67 -36 -16 -11 -48 -26 -72 -34 -24 -7 -69 -29
-100 -48 -60 -39 -65 -41 -65 -26 0 16 107 81 205 125 50 21 93 43 96 48 4 5
-6 37 -21 71 -15 33 -42 100 -60 148 -30 80 -34 86 -54 78 -11 -5 -72 -28
-134 -51 -117 -44 -202 -103 -217 -150 -12 -35 13 -74 69 -108 74 -45 97 -72
103 -123 6 -54 -18 -88 -89 -124 -55 -28 -129 -39 -339 -53 -196 -12 -227 -28
-412 -210 -156 -154 -223 -211 -351 -295 -177 -118 -386 -205 -581 -242 -86
-16 -253 -15 -337 1 -29 6 -39 -11 -13 -21 8 -4 15 -12 15 -19 0 -7 7 -15 15
-19 8 -3 15 -12 15 -21 0 -8 5 -15 10 -15 6 0 10 -8 10 -19 0 -10 7 -24 15
-31 8 -7 15 -21 15 -31 0 -11 6 -19 13 -19 9 0 8 -3 -2 -9 -11 -7 -9 -10 9
-16 15 -5 19 -10 10 -15 -8 -5 -8 -9 4 -13 9 -4 16 -15 16 -26 0 -57 279 -92
445 -56 44 9 91 19 105 21 32 6 -41 -21 -100 -36 -57 -15 -67 -24 -75 -63 -4
-18 -20 -62 -36 -98 -36 -83 -66 -226 -51 -241 7 -7 14 1 21 29 7 24 20 44 33
51 51 24 121 52 134 52 8 0 14 5 14 10 0 6 -26 10 -58 10 -32 0 -62 3 -65 6
-10 11 73 104 117 132 23 14 84 53 136 88 107 70 211 124 237 124 10 0 38 9
62 21 25 11 74 26 110 35 120 27 127 29 113 38 -21 12 15 46 49 46 15 0 31 5
34 10 3 6 14 10 24 10 18 0 181 -44 211 -57 8 -4 24 -7 35 -8 53 -4 178 -39
192 -54 15 -15 16 -13 10 17 -7 33 -6 33 23 27 28 -6 73 -24 112 -46 10 -5 25
-9 33 -9 8 0 15 -4 15 -8 0 -4 33 -13 73 -19 69 -10 128 -29 332 -110 113 -45
126 -53 119 -75 -4 -13 -1 -16 11 -12 11 5 18 0 22 -15 10 -41 26 -22 20 26
-5 45 -20 64 -56 69 -34 6 -367 119 -372 127 -3 5 -8 8 -10 7 -9 -4 -84 14
-127 31 l-47 18 35 2 c19 1 39 1 44 0 5 -1 21 9 35 23 l26 25 120 -40 c263
-87 265 -87 265 -68 0 5 -14 15 -31 21 -21 7 -27 14 -20 21 13 13 -60 57 -96
57 -14 0 -22 4 -18 10 8 12 -28 44 -68 61 -21 9 -26 16 -22 33 5 19 5 19 -8 4
-12 -15 -16 -15 -45 8 -17 14 -36 22 -42 19 -11 -7 -12 -5 -16 88 -3 90 -8
106 -43 143 -30 32 -66 93 -58 100 6 6 76 -21 158 -60 44 -22 72 -30 85 -25
18 7 18 8 -2 8 -15 1 -23 9 -27 30 -4 18 -14 32 -27 36 -11 3 -20 11 -20 16 0
5 -5 9 -10 9 -6 0 -21 9 -33 21 -45 42 -72 50 -139 40 -35 -5 -106 -12 -158
-16 -199 -13 -242 -36 -440 -235 -194 -194 -343 -306 -503 -380 -94 -42 -121
-46 -42 -5 207 108 336 204 515 385 80 81 163 159 185 173 64 42 150 67 274
77 178 16 202 20 263 47 66 29 92 54 112 108 14 39 15 39 15 10 1 -39 -29 -88
-68 -111 -17 -10 -31 -22 -31 -26 0 -4 31 -32 70 -63 38 -30 83 -75 100 -100
29 -43 43 -51 99 -57 40 -5 35 -25 -9 -32 -37 -6 -40 -8 -39 -39 1 -17 4 -45
8 -62 5 -26 10 -30 37 -27 28 3 33 -2 62 -55 17 -32 32 -51 32 -43 0 8 20 38
45 65 25 28 48 60 51 73 12 45 -3 113 -35 159 -18 25 -31 54 -29 66 2 16 -2
22 -17 22 -12 0 -21 8 -23 20 -2 11 -10 25 -17 31 -8 5 -16 28 -18 50 -3 21
-8 51 -12 67 -5 17 -3 27 4 27 6 0 11 -4 11 -10 0 -5 8 -6 17 -3 13 5 15 2 10
-11 -5 -11 -3 -15 5 -10 6 4 17 -1 25 -11 12 -18 13 -18 13 2 0 12 6 23 13 26
9 3 8 11 -5 33 -56 97 -75 144 -80 194 l-5 55 18 -40 c9 -22 18 -49 19 -60 2
-26 62 -138 76 -142 12 -4 24 104 24 222 0 68 -28 178 -62 243 -8 15 -8 26 -2
32 7 7 16 -8 28 -45 20 -64 34 -70 38 -17 l3 37 14 -40 c7 -22 24 -51 36 -65
13 -14 35 -63 49 -110 14 -47 37 -103 49 -125 38 -67 140 -185 165 -192 23 -5
112 16 112 28 0 4 16 10 35 13 19 4 35 11 35 16 0 6 11 10 24 10 13 0 29 7 36
15 7 8 18 15 25 15 7 0 15 7 19 15 3 8 9 14 13 13 4 -2 8 2 8 7 0 6 -7 9 -17
9 -21 -2 -12 24 10 29 10 2 26 0 37 -3 27 -9 155 49 155 70 0 8 11 24 25 34
13 10 22 22 20 27 -9 13 16 22 28 10 6 -6 17 -11 24 -11 14 0 45 54 36 64 -4
3 1 6 10 6 8 0 25 12 36 26 22 28 28 50 12 39 -6 -3 -6 7 0 27 5 18 9 34 9 35
0 2 10 2 23 0 16 -1 22 3 21 16 -1 9 5 17 13 17 10 0 14 7 10 19 -3 13 -1 18
8 15 7 -3 16 4 20 15 3 11 25 37 49 58 47 41 70 78 61 93 -3 6 1 20 9 32 18
25 21 17 6 -13 -19 -34 7 -20 42 24 21 25 37 58 41 82 4 22 9 54 12 70 4 24 3
26 -4 10 -9 -19 -10 -19 -10 3 -1 15 -7 22 -21 22 -33 0 -35 -1 -32 -16 2 -8
-5 -14 -17 -14 -23 0 -32 -18 -20 -42 13 -25 2 -43 -40 -61 -24 -11 -38 -24
-37 -34 0 -10 -6 -19 -16 -21 -11 -2 -23 11 -39 42 -19 38 -20 48 -9 61 10 12
10 19 2 27 -7 7 -12 22 -12 35 0 15 -6 23 -16 23 -21 0 -53 37 -60 69 -3 14
-7 32 -10 39 -2 6 4 12 14 13 14 0 14 2 2 6 -8 3 -18 10 -21 15 -12 19 -8 -70
7 -129 19 -77 17 -81 -92 -156 -78 -54 -95 -77 -58 -77 23 0 18 -66 -8 -96
-39 -46 -49 -54 -64 -54 -8 0 -14 -4 -14 -8 0 -5 -18 -18 -40 -31 -22 -12 -40
-18 -40 -12 0 15 39 80 88 144 47 62 46 70 -3 33 -18 -14 -55 -39 -84 -55 -46
-28 -52 -29 -57 -13 -19 54 -47 97 -78 118 -43 30 -53 31 -27 2 11 -11 30 -50
42 -85 11 -34 26 -63 32 -63 7 0 -4 -10 -23 -23 -83 -52 -148 -120 -186 -194
-34 -64 -40 -69 -60 -52 -13 10 -19 8 -37 -13 -36 -42 -55 -43 -63 -3 -14 75
-39 16 -28 -65 4 -32 3 -50 -4 -50 -12 0 -40 67 -52 124 -5 23 -17 75 -27 116
-10 41 -17 84 -15 96 4 28 168 196 212 217 21 10 28 17 17 17 -10 0 -32 -8
-50 -17 -18 -9 -37 -16 -44 -15 -6 1 -14 -2 -18 -8 -4 -6 1 -7 12 -3 15 5 16
3 6 -8 -10 -10 -16 -10 -25 -1 -8 8 -6 16 12 30 16 13 20 21 12 26 -7 4 -12 2
-12 -3 0 -6 -6 -11 -14 -11 -8 0 -21 -8 -28 -18 -22 -31 -42 -38 -23 -8 10 14
22 26 27 26 6 0 7 7 4 15 -3 9 1 18 9 21 17 7 20 24 4 24 -13 0 -39 25 -39 38
0 6 -6 13 -12 16 -10 5 -10 7 0 12 6 3 12 10 12 15 0 6 -5 7 -11 3 -10 -6 25
50 41 66 55 55 -9 17 -82 -49 -16 -14 -28 -22 -28 -18 0 17 37 72 50 75 8 2
20 8 25 14 7 7 2 8 -15 4 -14 -4 -3 4 23 18 27 15 54 26 60 26 7 1 30 9 52 20
44 21 70 26 60 10 -3 -5 0 -10 7 -10 20 1 103 47 100 56 -2 4 30 20 70 34 69
25 136 51 378 142 163 61 155 55 158 121 3 60 -19 108 -46 99z m-972 -612 c0
-34 -4 -50 -13 -50 -7 0 -30 -12 -50 -26 -44 -29 -52 -27 -42 13 6 24 85 113
100 113 3 0 5 -22 5 -50z m-10 -111 c0 -16 -4 -19 -20 -14 -14 4 -20 2 -20 -8
0 -8 -7 -20 -15 -27 -13 -11 -18 -10 -30 6 -14 18 -22 54 -9 42 3 -4 17 0 32
8 39 20 62 18 62 -7z m86 -61 c-6 -10 -12 -14 -14 -9 -2 6 -11 7 -20 4 -14 -6
-15 -4 -5 8 7 8 21 15 31 15 16 0 18 -3 8 -18z m1092 -48 c-15 -24 -24 -25
-32 -4 -4 12 -2 15 9 11 8 -4 17 -2 20 3 4 6 8 10 11 10 2 0 -1 -9 -8 -20z
m-1275 -307 c70 -101 81 -123 69 -135 -7 -7 -25 10 -53 49 -24 32 -49 64 -56
71 -7 7 -13 21 -13 30 0 9 -3 27 -6 40 -10 37 2 25 59 -55z m-199 36 c-8 -14
-24 -10 -24 6 0 9 6 12 15 9 8 -4 12 -10 9 -15z m756 -359 c-8 -5 -17 -7 -19
-4 -3 3 1 9 9 14 8 5 17 7 19 4 3 -3 -1 -9 -9 -14z m-1619 -576 c25 -11 27
-14 9 -10 -14 3 -31 6 -37 6 -7 0 -13 5 -13 10 0 13 2 13 41 -6z m-1150 -154
c5 0 9 -5 9 -11 0 -6 -6 -9 -14 -6 -7 3 -19 0 -25 -6 -14 -14 -25 -2 -17 19 4
10 12 14 22 10 9 -3 20 -6 25 -6z m29 -40 c0 -5 -5 -10 -11 -10 -5 0 -7 5 -4
10 3 6 8 10 11 10 2 0 4 -4 4 -10z m460 -75 c-14 -8 -29 -14 -35 -14 -5 0 1 6
15 14 14 8 30 14 35 14 6 0 -1 -6 -15 -14z"/>
<path d="M4127 3623 c-37 -14 -66 -27 -64 -29 4 -5 134 40 144 49 11 12 -10 7
-80 -20z"/>
<path d="M1848 3613 c7 -3 16 -2 19 1 4 3 -2 6 -13 5 -11 0 -14 -3 -6 -6z"/>
<path d="M4173 3609 c-18 -5 -33 -12 -33 -15 0 -8 63 6 75 17 11 11 1 10 -42
-2z"/>
<path d="M3940 3585 c-19 -7 -28 -14 -20 -14 8 0 29 6 45 14 39 17 21 18 -25
0z"/>
<path d="M3530 3580 c0 -5 -7 -10 -15 -10 -8 0 -15 -6 -15 -14 0 -9 7 -12 19
-9 18 5 36 -20 26 -37 -3 -5 -2 -11 3 -14 4 -2 9 8 10 24 1 16 -2 31 -7 35 -6
3 -8 12 -4 20 3 8 0 15 -6 15 -6 0 -11 -4 -11 -10z"/>
<path d="M3970 3569 c-30 -10 -59 -24 -65 -30 -5 -6 21 1 59 16 67 25 90 36
70 34 -5 0 -34 -9 -64 -20z"/>
<path d="M4098 3583 c-10 -2 -18 -9 -18 -14 0 -6 10 -5 23 2 37 20 36 23 -5
12z"/>
<path d="M3142 3530 c0 -19 2 -27 5 -17 2 9 2 25 0 35 -3 9 -5 1 -5 -18z"/>
<path d="M3977 3538 c-32 -11 -56 -22 -53 -25 5 -5 136 36 136 43 0 8 -25 2
-83 -18z"/>
<path d="M3792 3533 c-24 -8 -41 -17 -39 -19 5 -5 69 16 82 27 11 11 10 11
-43 -8z"/>
<path d="M4090 3539 c0 -5 5 -7 10 -4 6 3 10 8 10 11 0 2 -4 4 -10 4 -5 0 -10
-5 -10 -11z"/>
<path d="M3823 3517 c-35 -12 -63 -24 -63 -28 0 -7 118 28 129 37 14 12 -12 8
-66 -9z"/>
<path d="M4015 3514 c-35 -13 -36 -14 -8 -9 19 2 33 0 35 -7 2 -6 12 -9 21 -5
10 4 14 12 11 22 -7 17 -6 17 -59 -1z m50 -4 c3 -5 1 -10 -4 -10 -6 0 -11 5
-11 10 0 6 2 10 4 10 3 0 8 -4 11 -10z"/>
<path d="M3700 3500 c-8 -5 -10 -10 -5 -10 6 0 17 5 25 10 8 5 11 10 5 10 -5
0 -17 -5 -25 -10z"/>
<path d="M3860 3494 l-25 -15 25 5 c14 3 28 6 33 6 4 0 7 5 7 10 0 14 -10 12
-40 -6z"/>
<path d="M3941 3491 c-12 -8 -12 -11 0 -23 14 -15 49 -13 49 3 0 5 6 6 14 3 8
-3 17 0 21 6 7 11 -23 9 -57 -5 -10 -4 -18 -3 -18 3 0 6 6 13 13 15 6 3 8 6 2
6 -5 0 -16 -3 -24 -8z"/>
<path d="M3645 3483 c-11 -3 -24 -10 -30 -15 -7 -7 -2 -8 15 -3 52 15 64 30
15 18z"/>
<path d="M3682 3468 c-29 -12 -51 -23 -48 -25 8 -8 106 28 106 38 0 5 -1 8 -2
8 -2 -1 -27 -10 -56 -21z"/>
<path d="M3784 3465 c-10 -8 -14 -15 -8 -15 5 0 19 7 30 15 10 8 14 15 8 15
-5 0 -19 -7 -30 -15z"/>
<path d="M3873 3463 c-38 -19 -43 -33 -10 -27 12 2 3 -3 -21 -12 -35 -13 -41
-19 -31 -30 6 -8 19 -13 28 -13 13 1 13 2 -1 6 -10 2 -18 9 -18 14 0 12 33 12
46 -1 6 -6 15 -6 24 0 12 8 10 10 -10 10 -22 1 -23 2 -7 11 13 8 22 7 33 -2
20 -17 27 -6 19 30 -8 35 -8 35 -52 14z m41 -19 c9 -24 7 -27 -9 -10 -17 17
-19 26 -6 26 5 0 12 -7 15 -16z"/>
<path d="M4005 3454 c-22 -13 -37 -24 -33 -24 14 0 78 34 78 42 0 10 3 11 -45
-18z"/>
<path d="M4068 3473 c7 -3 16 -2 19 1 4 3 -2 6 -13 5 -11 0 -14 -3 -6 -6z"/>
<path d="M3200 3465 c0 -5 7 -32 15 -60 l15 -50 -5 44 c-5 39 -24 91 -25 66z"/>
<path d="M2485 3455 c-5 -2 -35 -11 -65 -20 -85 -26 -155 -61 -272 -137 -99
-65 -129 -88 -94 -75 19 8 222 -20 247 -34 16 -8 27 -8 46 2 53 28 82 -30 37
-71 -15 -14 -24 -19 -20 -13 5 9 2 11 -9 7 -14 -6 -14 -8 2 -26 23 -25 55 -21
188 27 55 20 138 50 185 66 119 42 160 61 160 71 0 18 -61 97 -102 132 -59 51
-133 76 -221 75 -40 0 -76 -2 -82 -4z"/>
<path d="M3525 3440 c-27 -10 -41 -19 -30 -19 11 0 38 8 60 18 51 25 35 25
-30 1z"/>
<path d="M3693 3438 c-73 -28 -67 -40 7 -14 33 12 60 24 60 28 0 11 -6 9 -67
-14z"/>
<path d="M3808 3442 c-10 -2 -18 -8 -18 -13 0 -13 27 -11 35 2 9 13 4 16 -17
11z"/>
<path d="M3535 3415 c-53 -25 -39 -27 33 -5 23 7 42 17 42 22 0 13 -21 8 -75
-17z"/>
<path d="M3152 3418 c-16 -16 -15 -40 1 -63 16 -21 22 -14 31 38 7 39 -7 50
-32 25z"/>
<path d="M3738 3417 c-7 -8 -30 -17 -51 -21 -20 -4 -37 -12 -37 -17 0 -6 9 -8
19 -4 11 3 22 1 26 -5 3 -5 11 -10 17 -10 6 0 5 7 -3 18 -13 15 -12 16 4 3 13
-10 17 -11 17 -1 0 9 7 7 20 -5 15 -14 20 -15 20 -4 0 11 2 11 11 -1 9 -12 9
-11 4 5 -4 11 -10 28 -12 38 -6 20 -17 22 -35 4z"/>
<path d="M3425 3403 l-30 -14 30 6 c31 7 41 12 34 19 -2 2 -17 -3 -34 -11z"/>
<path d="M4562 3408 c-8 -8 -9 -15 -1 -25 16 -19 29 -16 29 6 0 25 -13 34 -28
19z"/>
<path d="M4605 3410 c-3 -5 -1 -10 4 -10 6 0 11 5 11 10 0 6 -2 10 -4 10 -3 0
-8 -4 -11 -10z"/>
<path d="M3296 3394 c-5 -13 -4 -14 7 -6 8 7 18 8 22 4 5 -4 5 -1 1 6 -10 17
-23 15 -30 -4z"/>
<path d="M3580 3394 l-25 -15 25 5 c14 3 28 6 33 6 4 0 7 5 7 10 0 14 -10 12
-40 -6z"/>
<path d="M1977 3368 c-16 -11 -45 -27 -65 -34 l-37 -13 47 -1 c29 0 52 6 62
15 8 8 19 15 25 15 6 0 11 9 11 20 0 25 -8 25 -43 -2z"/>
<path d="M3412 3373 c-24 -8 -41 -18 -38 -21 7 -6 86 17 101 30 14 12 -14 8
-63 -9z"/>
<path d="M3520 3370 c-13 -8 -13 -10 2 -10 9 0 20 5 23 10 8 13 -5 13 -25 0z"/>
<path d="M3610 3370 c-8 -6 -33 -15 -55 -22 -28 -8 -34 -13 -21 -16 15 -3 16
-6 5 -13 -10 -6 -11 -11 -3 -16 6 -5 13 -13 15 -20 3 -8 18 -6 52 9 40 18 46
24 41 42 -12 39 -18 46 -34 36z"/>
<path d="M4478 3373 c7 -3 16 -2 19 1 4 3 -2 6 -13 5 -11 0 -14 -3 -6 -6z"/>
<path d="M3275 3349 c-22 -10 -29 -16 -16 -13 37 10 88 33 71 33 -8 0 -33 -9
-55 -20z"/>
<path d="M3666 3362 c-16 -26 53 -42 74 -17 15 19 6 32 -12 18 -25 -19 -47
-23 -41 -7 5 15 -12 20 -21 6z"/>
<path d="M3427 3343 c-26 -8 -45 -18 -42 -23 6 -9 105 21 105 33 0 9 -4 8 -63
-10z"/>
<path d="M3301 3336 c-19 -7 -37 -18 -39 -24 -2 -8 12 -6 42 5 25 10 46 21 46
25 0 10 -7 9 -49 -6z"/>
<path d="M3178 3318 c-21 -6 -38 -14 -38 -18 0 -4 19 -1 42 7 69 23 66 30 -4
11z"/>
<path d="M3476 3321 c-3 -5 -22 -12 -41 -15 -40 -8 -40 -7 -19 -47 16 -32 22
-32 86 -5 26 11 26 12 13 44 -14 32 -29 40 -39 23z"/>
<path d="M3308 3302 c-41 -18 -52 -37 -15 -27 46 13 77 28 77 36 0 13 -19 10
-62 -9z"/>
<path d="M3213 3303 c-21 -8 -15 -22 7 -16 11 3 20 9 20 14 0 10 -8 10 -27 2z"/>
<path d="M2075 3290 c-3 -5 -2 -10 4 -10 5 0 13 5 16 10 3 6 2 10 -4 10 -5 0
-13 -4 -16 -10z"/>
<path d="M3055 3275 c-16 -7 -23 -14 -15 -14 8 0 29 6 45 14 17 7 23 14 15 14
-8 0 -28 -6 -45 -14z"/>
<path d="M3329 3271 l-47 -16 15 -37 c14 -35 33 -51 33 -29 0 5 16 12 35 15
38 7 41 16 22 57 l-12 26 -46 -16z"/>
<path d="M4490 3280 c-24 -15 -7 -18 30 -4 31 11 32 13 10 13 -14 0 -32 -3
-40 -9z"/>
<path d="M4560 3281 c0 -5 -8 -12 -17 -14 -15 -4 -15 -5 -2 -6 9 0 22 6 29 14
9 10 9 15 1 15 -6 0 -11 -4 -11 -9z"/>
<path d="M4627 3284 c-4 -4 -7 -20 -7 -36 0 -16 -5 -38 -10 -49 -8 -14 -7 -19
2 -19 7 0 21 19 31 42 14 35 15 44 4 55 -7 8 -16 10 -20 7z"/>
<path d="M3150 3271 c0 -5 9 -7 20 -4 11 3 20 7 20 9 0 2 -9 4 -20 4 -11 0
-20 -4 -20 -9z"/>
<path d="M3203 3263 c-39 -13 -58 -33 -33 -33 16 0 80 33 80 42 0 4 -1 8 -2 7
-2 0 -22 -7 -45 -16z"/>
<path d="M3071 3255 c-21 -7 -29 -15 -22 -19 13 -8 81 14 81 26 0 10 -17 8
-59 -7z"/>
<path d="M2970 3244 c-31 -13 -32 -14 -7 -10 15 2 30 -1 33 -5 3 -5 -6 -9 -20
-9 -14 0 -26 -4 -26 -10 0 -14 31 -12 60 5 19 11 21 14 8 15 -21 0 -24 16 -5
23 6 3 8 5 2 5 -5 0 -26 -6 -45 -14z"/>
<path d="M3215 3231 c-29 -12 -40 -21 -37 -34 2 -9 8 -14 14 -11 6 4 9 3 6 -2
-3 -5 -3 -16 1 -26 5 -14 10 -15 44 -3 48 16 54 22 39 37 -7 7 -12 20 -12 29
0 26 -10 28 -55 10z m42 -56 c-7 -17 -47 -21 -47 -5 0 11 41 31 49 24 2 -2 1
-10 -2 -19z"/>
<path d="M3100 3227 c-43 -13 -44 -13 -35 -26 4 -8 15 -6 35 4 34 17 40 18 40
6 0 -5 -13 -12 -30 -16 -41 -9 -44 -18 -21 -62 11 -21 20 -32 21 -24 0 7 6 11
13 8 7 -3 22 0 34 7 20 11 21 13 6 56 -19 57 -21 59 -63 47z m44 -53 c3 -8 2
-12 -4 -9 -6 3 -10 10 -10 16 0 14 7 11 14 -7z"/>
<path d="M4564 3225 c-9 -21 -2 -26 13 -10 8 9 9 16 3 20 -6 3 -13 -1 -16 -10z"/>
<path d="M2900 3223 c-8 -3 -26 -10 -39 -15 -13 -5 -21 -11 -18 -14 7 -8 77
18 77 28 0 4 -1 8 -2 7 -2 0 -10 -3 -18 -6z"/>
<path d="M2875 3187 c-28 -15 -15 -25 20 -14 19 6 35 14 35 18 0 10 -35 7 -55
-4z"/>
<path d="M3019 3195 c-3 -2 -16 -6 -29 -8 -23 -4 -42 -27 -22 -27 20 0 72 22
72 31 0 10 -13 12 -21 4z"/>
<path d="M2783 3183 c-13 -2 -23 -9 -23 -14 0 -11 3 -11 34 1 14 5 26 7 26 5
0 -3 -11 -10 -25 -15 -14 -5 -25 -14 -25 -20 0 -12 0 -12 39 1 22 8 30 16 27
26 -3 8 -6 17 -6 19 0 4 -13 4 -47 -3z"/>
<path d="M3536 3182 c-3 -5 8 -6 25 -4 16 2 29 6 29 8 0 8 -49 4 -54 -4z"/>
<path d="M3753 3164 c-15 -16 -16 -24 -4 -24 8 0 24 30 19 35 -2 2 -9 -3 -15
-11z"/>
<path d="M4567 3165 c-4 -8 -2 -17 2 -20 5 -2 11 4 14 15 6 23 -8 27 -16 5z"/>
<path d="M2708 3156 c-33 -12 -38 -30 -5 -21 24 8 43 23 36 28 -2 2 -16 -1
-31 -7z"/>
<path d="M2898 3158 c-16 -5 -28 -14 -28 -20 0 -6 8 -7 18 -3 9 4 25 10 35 12
9 3 17 9 17 14 0 11 -7 10 -42 -3z"/>
<path d="M3015 3160 c-4 -6 -10 -8 -14 -6 -4 3 -13 0 -21 -5 -12 -8 -12 -12
-2 -16 6 -2 12 -12 12 -21 0 -36 16 -46 49 -32 33 13 37 24 21 64 -10 26 -34
34 -45 16z"/>
<path d="M2730 3133 c-8 -2 -21 -6 -28 -9 -7 -2 -11 -8 -7 -14 7 -11 55 8 55
22 0 4 -1 8 -2 7 -2 0 -10 -3 -18 -6z"/>
<path d="M2812 3125 c-18 -8 -31 -19 -28 -24 8 -13 66 10 66 26 0 15 3 16 -38
-2z"/>
<path d="M2930 3125 c-7 -9 -19 -14 -26 -11 -21 8 -23 -6 -5 -46 l16 -37 35
15 c19 8 30 18 25 22 -6 4 -11 18 -13 32 -4 34 -16 44 -32 25z"/>
<path d="M2615 3120 c-16 -7 -17 -9 -3 -9 11 -1 15 -7 11 -21 -5 -19 -3 -20
21 -9 30 14 34 29 9 29 -15 0 -16 2 -3 10 13 9 13 10 0 9 -8 0 -24 -4 -35 -9z"/>
<path d="M2552 3102 c-18 -3 -22 -8 -16 -25 9 -29 6 -28 40 -18 16 5 24 10 17
10 -6 1 -13 9 -15 19 -2 11 -10 16 -26 14z"/>
<path d="M4360 3093 c0 -15 -2 -16 -10 -3 -8 12 -10 10 -10 -8 0 -13 4 -21 9
-17 5 3 12 -3 14 -12 3 -10 5 -1 6 20 0 20 -1 37 -4 37 -3 0 -5 -8 -5 -17z"/>
<path d="M2710 3090 c-8 -5 -11 -12 -7 -16 3 -4 14 -1 22 6 11 9 19 10 27 2
14 -14 1 -32 -23 -32 -18 0 -19 -2 -4 -37 20 -47 18 -45 48 -34 27 11 27 18 0
91 -4 8 -5 18 -5 23 3 10 -40 9 -58 -3z"/>
<path d="M2817 3088 c-14 -11 -15 -19 -6 -51 7 -28 15 -37 26 -33 8 3 19 6 24
6 6 0 7 4 4 10 -3 6 1 7 9 4 20 -8 20 -5 1 40 -16 38 -30 44 -58 24z"/>
<path d="M4430 3090 c0 -5 5 -10 11 -10 5 0 7 5 4 10 -3 6 -8 10 -11 10 -2 0
-4 -4 -4 -10z"/>
<path d="M2483 3073 c-15 -5 -17 -39 -4 -47 15 -10 42 19 35 37 -6 18 -10 19
-31 10z m24 -19 c-3 -3 -12 -4 -19 -1 -8 3 -5 6 6 6 11 1 17 -2 13 -5z"/>
<path d="M2645 3065 c-25 -11 -27 -14 -13 -20 10 -4 15 -11 12 -16 -8 -13 18
-89 31 -89 6 0 18 6 27 13 14 11 14 17 -6 68 l-21 57 -30 -13z"/>
<path d="M2424 3054 c-6 -3 -9 -15 -7 -28 4 -18 10 -22 24 -19 15 4 17 9 8 19
-6 7 -8 18 -4 24 6 10 -2 12 -21 4z"/>
<path d="M2568 3043 c-10 -2 -18 -11 -18 -20 0 -10 6 -13 16 -9 14 5 14 4 5
-7 -8 -11 -8 -21 4 -43 8 -16 15 -35 15 -41 0 -16 9 -16 40 2 14 8 19 14 13
15 -7 0 -13 9 -13 19 0 11 -5 23 -10 26 -6 4 -8 10 -5 15 7 11 -12 51 -23 49
-4 -1 -15 -3 -24 -6z"/>
<path d="M342 3013 c0 -16 -5 -43 -13 -61 -13 -30 -12 -35 4 -47 16 -11 92
-30 110 -26 4 0 7 -3 7 -7 0 -5 11 -14 25 -20 24 -11 34 -37 16 -44 -20 -7
-109 -139 -149 -219 -53 -108 -72 -194 -71 -334 0 -134 15 -211 62 -310 87
-183 248 -281 480 -292 134 -7 225 7 377 59 180 62 363 165 525 299 39 32 130
116 203 188 193 190 198 192 557 220 151 12 190 24 237 71 59 59 50 99 -35
154 -63 40 -92 72 -101 108 -8 36 15 92 48 114 44 28 22 27 -56 -2 -64 -23
-76 -32 -92 -65 -24 -48 -91 -113 -137 -132 l-36 -15 41 42 c23 22 54 58 70
79 29 37 29 39 13 67 -9 15 -17 33 -17 39 0 24 -36 91 -49 91 -7 0 -29 10 -48
21 -19 12 -36 19 -39 16 -3 -3 19 -21 50 -41 45 -29 57 -42 66 -76 12 -45 0
-80 -27 -80 -13 0 -14 3 -5 12 21 21 14 48 -12 48 -13 0 -29 7 -37 16 -9 11
-22 14 -45 9 -29 -5 -35 -2 -48 22 -8 15 -15 22 -16 15 0 -7 -4 -10 -10 -7 -5
3 -10 1 -10 -4 0 -6 6 -11 13 -11 8 0 7 -3 -3 -9 -8 -6 -18 -7 -24 -4 -5 4
-30 7 -55 8 -25 1 -66 5 -91 9 -43 6 -82 -5 -67 -20 3 -4 42 -10 86 -14 114
-10 205 -60 188 -104 -7 -18 -91 -23 -117 -6 -12 8 -12 10 -1 10 27 0 1 13
-46 23 -50 10 -113 15 -250 21 -49 2 -94 10 -114 20 -24 12 -57 16 -119 15
-69 -1 -92 2 -120 19 -21 12 -63 22 -104 26 -38 4 -76 10 -84 15 -10 5 -23 4
-34 -3 -15 -9 -22 -8 -31 5 -7 9 -22 19 -34 23 -18 6 -23 3 -28 -17 -6 -23 -9
-24 -43 -14 -20 6 -40 15 -43 20 -4 5 -11 7 -17 3 -6 -3 -15 2 -21 11 -8 14
-12 16 -22 6 -14 -14 -51 -17 -63 -6 -4 4 -25 9 -48 10 -22 2 -47 8 -54 14 -8
6 -20 9 -28 6 -7 -3 -31 0 -52 8 -59 20 -118 24 -138 9 -17 -12 -16 -14 2 -32
11 -11 26 -22 33 -24 8 -3 11 -9 7 -13 -4 -4 -22 4 -40 17 -19 14 -51 28 -73
31 -70 10 -108 20 -135 34 -14 7 -31 13 -37 13 -7 0 -13 5 -13 10 0 6 -4 10
-10 10 -5 0 -9 -12 -8 -27z m968 -381 c0 -8 9 -12 23 -10 14 2 22 -2 22 -12 0
-8 4 -18 10 -22 5 -4 10 -13 10 -20 0 -7 9 -56 19 -109 13 -73 15 -105 8 -132
-6 -22 -7 -37 -1 -37 5 0 9 -4 9 -10 0 -25 -27 -6 -39 27 l-13 36 -18 -24
c-10 -13 -16 -27 -14 -31 3 -4 -2 -5 -9 -2 -8 3 -17 14 -20 25 -6 24 -27 25
-27 2 0 -14 -3 -13 -17 6 -12 19 -14 28 -5 42 9 15 8 19 -8 24 -22 7 -27 25
-7 25 8 0 8 3 -2 9 -8 5 -12 18 -8 30 3 12 2 21 -2 21 -7 0 -20 23 -40 64 -2
5 3 6 12 3 23 -9 31 10 10 22 -10 5 -18 21 -18 35 -1 13 2 23 6 20 5 -2 7 8 6
23 -2 22 3 29 21 31 17 3 25 -2 29 -17 3 -12 12 -21 20 -21 11 0 13 8 8 33
l-6 32 20 -25 c11 -14 21 -31 21 -38z"/>
<path d="M2036 3031 c-9 -14 19 -21 60 -14 31 5 34 8 19 14 -28 11 -73 11 -79
0z"/>
<path d="M2502 3016 c-25 -13 -19 -26 12 -26 19 0 19 -1 1 -13 -18 -14 -17
-44 4 -76 11 -17 55 -5 44 12 -4 7 -9 19 -10 27 -2 8 -9 31 -16 51 -12 34 -14
36 -35 25z"/>
<path d="M2418 2986 c-17 -12 -17 -17 -2 -67 21 -71 20 -69 54 -57 32 11 33
14 5 94 -14 43 -31 51 -57 30z"/>
<path d="M3494 2925 c8 -8 18 -15 22 -15 3 0 1 7 -6 15 -7 8 -17 15 -22 15 -5
0 -3 -7 6 -15z"/>
<path d="M3708 2913 c6 -2 18 -2 25 0 6 3 1 5 -13 5 -14 0 -19 -2 -12 -5z"/>
<path d="M4100 2375 c0 -8 2 -15 4 -15 2 0 6 7 10 15 3 8 1 15 -4 15 -6 0 -10
-7 -10 -15z"/>
<path d="M206 2139 c-16 -19 -16 -26 -4 -66 18 -63 34 -72 31 -17 -2 41 9 59
20 32 3 -7 6 -1 6 14 2 58 -21 74 -53 37z m31 -21 c-3 -7 -5 -2 -5 12 0 14 2
19 5 13 2 -7 2 -19 0 -25z"/>
<path d="M266 2018 c10 -31 7 -108 -6 -122 -6 -8 -4 -23 8 -46 13 -26 24 -35
47 -37 58 -6 59 6 10 102 -25 49 -45 97 -45 107 0 10 -5 18 -11 18 -6 0 -8 -9
-3 -22z"/>
<path d="M2825 1760 c-3 -5 -3 -10 2 -11 45 -4 70 -12 80 -25 6 -8 14 -11 17
-6 3 5 -6 19 -19 30 -26 23 -69 29 -80 12z"/>
<path d="M460 1728 c0 -3 17 -38 38 -78 20 -40 47 -94 60 -119 32 -62 53 -94
58 -88 7 7 -122 262 -141 277 -8 7 -15 10 -15 8z"/>
<path d="M2991 1701 c-15 -10 -11 -32 9 -48 23 -19 27 -16 22 17 -5 34 -13 42
-31 31z"/>
<path d="M2825 1420 c3 -5 13 -10 21 -10 8 0 12 5 9 10 -3 6 -13 10 -21 10 -8
0 -12 -4 -9 -10z"/>
<path d="M2073 1405 c11 -7 26 -11 35 -8 10 4 13 2 8 -5 -5 -8 -2 -10 8 -6 9
3 16 1 16 -5 0 -6 7 -11 15 -11 8 0 15 4 15 8 0 14 -58 42 -87 42 -26 -1 -27
-2 -10 -15z"/>
<path d="M2895 1390 c4 -6 11 -8 16 -5 14 9 11 15 -7 15 -8 0 -12 -5 -9 -10z"/>
<path d="M2190 1366 c0 -8 5 -18 10 -21 6 -3 10 2 10 12 0 15 2 16 11 3 9 -13
10 -13 6 0 -5 20 -37 26 -37 6z"/>
<path d="M2240 1361 c0 -17 25 -28 50 -21 l25 7 -28 12 c-34 13 -47 14 -47 2z"/>
<path d="M3195 1330 c3 -5 8 -10 11 -10 2 0 4 5 4 10 0 6 -5 10 -11 10 -5 0
-7 -4 -4 -10z"/>
<path d="M2622 1292 c-12 -4 -28 -18 -35 -31 -13 -28 -74 -67 -85 -56 -4 4 5
17 21 29 29 24 36 46 12 46 -9 0 -12 -6 -8 -17 4 -11 3 -14 -6 -9 -7 5 -18 -8
-31 -38 l-20 -45 23 -25 c23 -25 44 -36 33 -17 -7 10 18 34 27 25 3 -3 13 8
21 24 9 17 19 32 24 34 10 4 62 72 62 81 0 8 -6 8 -38 -1z"/>
<path d="M2441 1233 c1 -16 -1 -48 -5 -73 l-6 -45 14 50 c8 28 17 60 21 73 6
17 3 22 -9 22 -11 0 -16 -8 -15 -27z"/>
<path d="M2677 1229 c-21 -12 -23 -41 -3 -33 13 5 30 33 24 40 -2 1 -11 -2
-21 -7z"/>
<path d="M1930 1191 c0 -10 39 -31 44 -23 2 4 -7 12 -20 19 -13 6 -24 8 -24 4z"/>
<path d="M3127 1193 c-4 -3 -7 -11 -7 -17 0 -6 5 -5 12 2 6 6 9 14 7 17 -3 3
-9 2 -12 -2z"/>
<path d="M3150 1176 c0 -2 9 -6 20 -9 11 -3 18 -1 14 4 -5 9 -34 13 -34 5z"/>
<path d="M1350 1131 c-8 -6 -17 -8 -21 -5 -9 5 -34 -25 -27 -32 3 -3 60 2 127
11 67 9 126 13 131 10 5 -3 11 -1 14 4 3 5 -1 12 -10 15 -25 9 -197 7 -214 -3z"/>
<path d="M1595 1120 c4 -6 11 -8 16 -5 14 9 11 15 -7 15 -8 0 -12 -5 -9 -10z"/>
<path d="M1724 1111 c3 -4 43 -26 88 -49 71 -34 266 -177 256 -188 -2 -2 -26
8 -53 21 -57 27 -145 43 -145 26 0 -6 19 -20 43 -32 78 -40 130 -84 169 -143
40 -62 48 -96 23 -96 -20 0 -19 -5 10 -36 28 -30 35 -80 11 -71 -8 3 -16 1
-18 -5 -5 -14 14 -58 25 -58 14 0 7 -50 -19 -117 -14 -37 -36 -95 -48 -128
-14 -36 -26 -96 -29 -147 l-7 -88 30 0 c23 0 31 5 36 25 9 34 44 34 44 0 l0
-25 108 0 c71 0 112 4 120 12 9 9 12 9 12 1 0 -7 9 -11 19 -10 11 0 17 5 15 9
-3 5 -9 6 -13 3 -5 -2 -6 6 -4 20 4 17 10 22 22 18 9 -3 6 2 -6 11 -23 17 -32
56 -13 56 6 0 10 -9 10 -20 0 -28 20 -25 48 7 19 23 25 25 32 13 8 -12 10 -10
11 10 1 14 3 30 4 35 2 6 3 16 4 23 2 18 18 15 42 -10 l21 -23 -11 23 c-10 18
-10 27 0 38 13 16 6 25 -26 37 -5 3 -6 8 -2 13 4 5 11 4 15 -1 10 -14 42 -18
42 -5 0 16 -26 40 -35 32 -4 -4 -6 -2 -5 3 5 25 -1 37 -16 31 -10 -4 -14 -1
-11 6 2 8 15 12 30 10 31 -4 37 17 7 25 -11 3 -20 9 -20 14 0 5 -6 9 -14 9 -8
0 -17 4 -20 8 -3 5 17 9 45 9 27 0 52 -3 55 -8 3 -5 14 -4 25 2 11 6 27 8 35
5 8 -3 21 -3 29 1 13 4 12 8 -6 21 -13 9 -34 16 -48 17 -13 0 -26 6 -29 13 -2
7 -9 12 -16 12 -6 0 -50 16 -96 36 -47 20 -101 41 -120 47 l-35 12 53 3 c28 2
52 7 52 13 0 13 37 11 46 -2 3 -6 17 -8 29 -5 13 3 27 1 30 -5 4 -6 18 -8 31
-5 14 4 33 2 43 -4 14 -7 21 -6 23 1 3 8 10 6 21 -5 9 -10 17 -13 17 -8 0 6
12 9 28 7 15 -2 52 -4 82 -6 30 -1 60 -5 65 -9 6 -4 17 -7 25 -7 8 0 29 -3 45
-7 17 -3 23 -3 15 0 -8 4 -18 11 -21 17 -4 5 -19 11 -34 13 -16 1 -42 9 -59
18 -17 8 -89 33 -161 56 -71 23 -134 45 -140 50 -5 4 -29 13 -52 19 -66 18
-51 30 30 26 39 -2 72 -4 72 -5 0 -5 75 -13 123 -12 28 0 52 -4 52 -9 0 -6 6
-7 17 -1 9 6 29 6 45 1 32 -9 61 -2 52 12 -3 5 -16 9 -29 9 -13 0 -27 5 -30
10 -5 8 -11 7 -21 -1 -11 -9 -14 -9 -14 0 0 8 -8 10 -20 6 -11 -3 -20 -2 -20
3 0 10 -47 27 -63 24 -4 -1 -24 5 -44 13 -20 9 -43 13 -50 11 -7 -3 -22 8 -34
23 -12 16 -31 32 -42 35 -17 4 -18 7 -7 20 10 13 10 16 -1 17 -8 0 -22 2 -31
4 -10 2 -21 -2 -25 -7 -3 -7 -1 -8 5 -4 8 5 12 0 12 -13 0 -11 7 -26 15 -35 8
-8 15 -23 15 -34 0 -15 -7 -19 -37 -17 -24 0 -45 -6 -57 -17 -11 -10 -21 -17
-22 -15 -2 2 3 26 10 55 13 49 13 52 -6 58 -11 3 -21 4 -22 2 -1 -1 -10 -14
-19 -28 -23 -34 -21 -11 4 47 12 26 25 62 29 78 4 17 11 39 15 50 4 11 -2 7
-14 -10 -11 -16 -21 -38 -21 -47 0 -11 -5 -15 -15 -12 -10 4 -13 0 -10 -16 2
-12 0 -29 -5 -38 -5 -9 -11 -26 -15 -37 -6 -18 -8 -17 -21 10 -9 19 -13 22
-10 9 5 -30 -36 -23 -89 15 -24 17 -48 31 -53 31 -6 0 -12 4 -14 8 -4 12 -172
124 -223 150 -69 35 -184 64 -171 43z m750 -350 c3 -5 -1 -11 -9 -15 -9 -3
-15 0 -15 9 0 16 16 20 24 6z m-300 -537 c-8 -38 -16 -75 -16 -81 -1 -7 -8
-13 -16 -13 -9 0 -12 6 -8 15 3 9 13 44 22 78 9 34 18 66 21 70 13 20 12 -5
-3 -69z m236 56 c0 -5 -2 -10 -4 -10 -3 0 -8 5 -11 10 -3 6 -1 10 4 10 6 0 11
-4 11 -10z m30 -20 c0 -5 -2 -10 -4 -10 -3 0 -8 5 -11 10 -3 6 -1 10 4 10 6 0
11 -4 11 -10z m65 0 c-3 -5 -12 -7 -20 -3 -21 7 -19 13 6 13 11 0 18 -4 14
-10z m-11 -105 c-4 -8 -10 -12 -15 -9 -11 6 -2 24 11 24 5 0 7 -7 4 -15z m-57
-47 c-3 -8 -6 -5 -6 6 -1 11 2 17 5 13 3 -3 4 -12 1 -19z m-290 -27 c0 -11 -5
-17 -9 -15 -11 7 -10 34 1 34 6 0 9 -9 8 -19z"/>
<path d="M2455 1079 c-11 -4 -14 -8 -7 -8 7 -1 17 -12 22 -26 5 -14 16 -25 25
-25 8 0 15 -5 15 -10 0 -7 6 -7 19 0 24 12 34 13 27 1 -3 -5 1 -11 8 -14 8 -3
17 -1 20 6 3 9 7 9 13 1 13 -18 150 -28 156 -12 4 10 6 10 6 1 1 -18 21 -16
21 2 0 10 -10 15 -27 15 -14 0 -35 7 -45 16 -18 17 -48 22 -157 28 -47 2 -66
7 -70 18 -4 11 -12 13 -26 7z"/>
<path d="M1228 1073 c12 -2 30 -2 40 0 9 3 -1 5 -23 4 -22 0 -30 -2 -17 -4z"/>
<path d="M1655 1050 c3 -5 13 -10 21 -10 8 0 14 5 14 10 0 6 -9 10 -21 10 -11
0 -17 -4 -14 -10z"/>
<path d="M2400 970 c0 -6 -9 -30 -20 -52 -11 -23 -19 -42 -17 -43 1 -2 13 -5
27 -9 14 -3 19 -3 13 0 -19 8 -17 45 2 38 8 -4 15 -1 15 5 0 6 -4 11 -10 11
-6 0 -6 9 0 25 6 15 6 26 0 30 -6 4 -10 1 -10 -5z"/>
<path d="M2423 815 c-14 -15 -7 -25 19 -25 20 0 25 25 5 33 -6 2 -17 -1 -24
-8z"/>
<path d="M2870 800 c0 -5 5 -10 11 -10 5 0 7 5 4 10 -3 6 -8 10 -11 10 -2 0
-4 -4 -4 -10z"/>
<path d="M2990 680 c0 -5 9 -10 20 -10 11 0 20 5 20 10 0 6 -9 10 -20 10 -11
0 -20 -4 -20 -10z"/>
<path d="M2030 521 c0 -10 7 -24 15 -31 8 -7 15 -21 15 -31 0 -11 6 -19 14
-19 8 0 18 -10 22 -22 5 -17 8 -18 15 -7 14 26 4 54 -19 53 -15 0 -24 8 -32
29 -5 16 -7 33 -4 38 3 5 -2 9 -10 9 -9 0 -16 -8 -16 -19z"/>
<path d="M1953 389 c-21 -21 -15 -32 44 -76 61 -45 76 -44 88 4 7 31 -2 42
-52 60 -64 24 -68 24 -80 12z"/>
<path d="M2590 369 c0 -5 5 -7 10 -4 6 3 10 8 10 11 0 2 -4 4 -10 4 -5 0 -10
-5 -10 -11z"/>
<path d="M2795 320 c3 -5 8 -10 11 -10 2 0 4 5 4 10 0 6 -5 10 -11 10 -5 0 -7
-4 -4 -10z"/>
<path d="M2698 293 c6 -2 18 -2 25 0 6 3 1 5 -13 5 -14 0 -19 -2 -12 -5z"/>
<path d="M2719 261 c-8 -9 -13 -23 -11 -31 3 -7 0 -10 -6 -6 -6 4 -16 -4 -23
-16 -17 -32 -41 -49 -61 -44 -12 3 -18 -2 -18 -15 0 -10 5 -19 10 -19 19 0 10
-18 -11 -23 -16 -4 -19 -11 -15 -29 l6 -23 -11 23 c-7 12 -16 22 -21 22 -12 0
-10 -14 7 -36 19 -25 19 -35 0 -28 -8 4 -15 12 -15 19 0 8 -8 11 -19 8 -13 -3
-18 -13 -17 -34 l1 -29 67 0 c72 0 89 11 64 39 -24 26 -19 34 9 15 14 -9 25
-15 26 -13 1 2 3 22 5 43 2 22 10 44 19 48 8 5 15 14 15 19 0 6 -6 7 -12 3 -9
-5 -9 -2 1 9 15 19 26 23 15 5 -4 -7 -3 -8 5 -4 7 4 10 13 8 19 -2 7 0 20 4
29 6 10 5 19 -1 23 -12 8 -13 25 -1 25 5 0 12 -11 15 -25 4 -14 11 -25 17 -25
6 0 8 7 5 16 -3 9 -6 24 -6 35 0 24 -29 24 -51 0z"/>
<path d="M3222 200 c0 -19 2 -27 5 -17 2 9 2 25 0 35 -3 9 -5 1 -5 -18z"/>
<path d="M2012 193 c-7 -10 -10 -12 -7 -6 4 9 1 11 -10 7 -14 -6 -14 -8 2 -20
20 -14 37 -4 31 20 -3 15 -4 15 -16 -1z"/>
<path d="M3143 100 c2 -24 13 -26 21 -4 8 22 8 24 -8 24 -9 0 -14 -9 -13 -20z"/>
<path d="M1000 68 c0 -13 -3 -33 -6 -45 -6 -21 -3 -23 30 -23 20 0 36 2 36 5
0 3 -9 24 -20 45 -23 44 -40 52 -40 18z"/>
<path d="M1968 35 c-20 -26 -22 -35 -10 -35 9 0 35 50 30 55 -2 2 -11 -7 -20
-20z"/>
<path d="M2456 35 c4 -8 8 -15 10 -15 2 0 4 7 4 15 0 8 -4 15 -10 15 -5 0 -7
-7 -4 -15z"/>
<path d="M2480 36 c0 -9 5 -16 10 -16 6 0 10 4 10 9 0 6 -4 13 -10 16 -5 3
-10 -1 -10 -9z"/>
<path d="M3141 34 c0 -11 3 -14 6 -6 3 7 2 16 -1 19 -3 4 -6 -2 -5 -13z"/>
<path d="M3160 40 c0 -5 5 -10 10 -10 6 0 10 5 10 10 0 6 -4 10 -10 10 -5 0
-10 -4 -10 -10z"/>
<path d="M2116 21 c-4 -7 -5 -15 -2 -18 9 -9 19 4 14 18 -4 11 -6 11 -12 0z"/>
<path d="M2436 17 c3 -10 9 -15 12 -12 3 3 0 11 -7 18 -10 9 -11 8 -5 -6z"/>
<path d="M3140 10 c-12 -8 -9 -10 13 -10 15 0 27 5 27 10 0 13 -20 13 -40 0z"/>
</g>
</svg>
